<?xml version="1.0" encoding="iso-8859-1"?>
<!-- Uploaded to: SVG Repo, www.svgrepo.com, Generator: SVG Repo Mixer Tools -->
<svg version="1.1" id="Capa_1" xmlns="http://www.w3.org/2000/svg" xmlns:xlink="http://www.w3.org/1999/xlink" 
	 viewBox="0 0 15.331 15.331" xml:space="preserve">
<g>
	<g>
		<path style="fill:#030104;" d="M1.094,7.039L4.762,8.31l-1.82,1.025c-0.091,0.051-0.131,0.161-0.095,0.26
			c0.027,0.071,0.09,0.121,0.16,0.134C3.034,9.733,3.062,9.733,3.09,9.728l3.329-0.687c-0.021,0.218,0.125,0.42,0.344,0.461
			C6.84,9.517,6.915,9.508,6.984,9.483C7.04,9.531,7.106,9.566,7.182,9.581c0.231,0.044,0.455-0.108,0.498-0.34
			c0.003-0.015,0.003-0.029,0.004-0.044C7.822,9.16,7.933,9.055,7.978,8.915l4.699,0.887c-0.146,0.046-0.262,0.166-0.292,0.326
			c-0.044,0.231,0.108,0.455,0.34,0.498c0.231,0.044,0.454-0.108,0.498-0.34c0.03-0.16-0.035-0.315-0.154-0.41l0.813,0.153
			c0.626,0.118,1.11,0.335,1.229-0.291c-0.175-0.989-1.625-1.842-2.251-1.96L9.382,7.123L4.517,3.962
			C4.493,3.947,4.468,3.937,4.441,3.931C4.37,3.918,4.294,3.941,4.243,3.998C4.173,4.076,4.17,4.193,4.237,4.274l1.815,2.219
			L2.729,5.866c-0.23-0.62-0.496-1.347-0.769-2.122C1.178,1.525,0.534,2.636,0.479,2.928L0.008,6.576
			c-0.055,0.292,0.19,0.294,0.482,0.35L1.094,7.039L1.094,7.039z"/>
		<rect x="0.923" y="12.372" style="fill:#030104;" width="14.408" height="0.568"/>
	</g>
</g>
</svg>