<svg xmlns="http://www.w3.org/2000/svg" version="1.1" xmlns:xlink="http://www.w3.org/1999/xlink" xmlns:svgjs="http://svgjs.dev/svgjs" width="1000" height="1000" viewBox="0 0 1000 1000"><rect width="1000" height="1000" fill="#000000"></rect><g transform="matrix(0.7,0,0,0.7,149.57577107412015,371.2132971292157)"><svg viewBox="0 0 396 146" data-background-color="#003366" preserveAspectRatio="xMidYMid meet" height="368" width="1000" xmlns="http://www.w3.org/2000/svg" xmlns:xlink="http://www.w3.org/1999/xlink"><g id="tight-bounds" transform="matrix(1,0,0,1,0.23999236378347177,-0.007536416403297608)"><svg viewBox="0 0 395.52 146.0150728328066" height="146.0150728328066" width="395.52"><g><svg viewBox="0 0 395.52 146.0150728328066" height="146.0150728328066" width="395.52"><g transform="matrix(1,0,0,1,0,107.13026524187353)"><svg viewBox="0 0 395.52 38.88480759093306" height="38.88480759093306" width="395.52"><g id="textblocktransform"><svg viewBox="0 0 395.52 38.88480759093306" height="38.88480759093306" width="395.52" id="textblock"><g><svg viewBox="0 0 395.52 38.88480759093306" height="38.88480759093306" width="395.52"><g transform="matrix(1,0,0,1,0,0)"><svg width="395.52" viewBox="3 -36.849998474121094 379.3599853515625 37.29999923706055" height="38.88480759093306" data-palette-color="#ffffff"><path d="M6.25 0L6.25 0Q5.05 0 4.03-0.53 3-1.05 3-2.05L3-2.05 3-34.55Q3-35.6 4.03-36.08 5.05-36.55 6.25-36.55L6.25-36.55Q7.5-36.55 8.5-36.08 9.5-35.6 9.5-34.55L9.5-34.55 9.5-21.5 20.75-21.5 20.75-34.55Q20.75-35.6 21.78-36.08 22.8-36.55 24-36.55L24-36.55Q25.25-36.55 26.25-36.08 27.25-35.6 27.25-34.55L27.25-34.55 27.25-2.05Q27.25-1.05 26.25-0.53 25.25 0 24 0L24 0Q22.8 0 21.78-0.53 20.75-1.05 20.75-2.05L20.75-2.05 20.75-16.4 9.5-16.4 9.5-2.05Q9.5-1.05 8.5-0.53 7.5 0 6.25 0ZM44.65 0.3L44.65 0.3Q41.35 0.3 38.7-0.83 36.05-1.95 34.5-4.48 32.95-7 32.95-11.15L32.95-11.15 32.95-25.1Q32.95-29.25 34.5-31.78 36.05-34.3 38.67-35.43 41.3-36.55 44.65-36.55L44.65-36.55Q47.95-36.55 50.62-35.43 53.3-34.3 54.85-31.78 56.4-29.25 56.4-25.1L56.4-25.1 56.4-11.15Q56.4-7 54.85-4.48 53.3-1.95 50.62-0.83 47.95 0.3 44.65 0.3ZM44.65-5.4L44.65-5.4Q47.1-5.4 48.5-6.8 49.9-8.2 49.9-11.15L49.9-11.15 49.9-25.1Q49.9-28.05 48.5-29.45 47.1-30.85 44.65-30.85L44.65-30.85Q42.2-30.85 40.8-29.45 39.4-28.05 39.4-25.1L39.4-25.1 39.4-11.15Q39.4-8.2 40.8-6.8 42.2-5.4 44.65-5.4ZM82.05 0.25L82.05 0.25Q81.4 0.25 80.77-0.15 80.15-0.55 79.8-1.3L79.8-1.3 72.7-15.1 68.5-15.1 68.5-2.05Q68.5-1.05 67.5-0.53 66.5 0 65.25 0L65.25 0Q64.05 0 63.02-0.53 62-1.05 62-2.05L62-2.05 62-34.55Q62-35.35 62.57-35.95 63.15-36.55 64.09-36.55L64.09-36.55 74-36.55Q77.3-36.55 79.97-35.6 82.65-34.65 84.25-32.38 85.84-30.1 85.84-26.1L85.84-26.1Q85.84-23.2 85-21.18 84.15-19.15 82.67-17.93 81.2-16.7 79.3-16.1L79.3-16.1 85.9-3.95Q86-3.75 86.05-3.53 86.09-3.3 86.09-3.15L86.09-3.15Q86.09-2.35 85.5-1.55 84.9-0.75 83.97-0.25 83.05 0.25 82.05 0.25ZM68.5-30.85L68.5-20.2 74-20.2Q76.45-20.2 77.9-21.4 79.34-22.6 79.34-25.5L79.34-25.5Q79.34-28.5 77.9-29.68 76.45-30.85 74-30.85L74-30.85 68.5-30.85ZM93.64 0L93.64 0Q92.44 0 91.42-0.53 90.39-1.05 90.39-2.05L90.39-2.05 90.39-34.55Q90.39-35.6 91.42-36.08 92.44-36.55 93.64-36.55L93.64-36.55Q94.89-36.55 95.89-36.08 96.89-35.6 96.89-34.55L96.89-34.55 96.89-2.05Q96.89-1.05 95.89-0.53 94.89 0 93.64 0ZM123.29 0L102.54 0Q101.54 0 101.07-0.5 100.59-1 100.59-1.8L100.59-1.8Q100.59-2.85 101.29-4.05L101.29-4.05 116.14-30.85 103.49-30.85Q102.54-30.85 102.02-31.7 101.49-32.55 101.49-33.7L101.49-33.7Q101.49-34.75 101.97-35.65 102.44-36.55 103.49-36.55L103.49-36.55 122.49-36.55Q123.49-36.55 123.97-36.05 124.44-35.55 124.44-34.8L124.44-34.8Q124.44-33.75 123.69-32.45L123.69-32.45 108.89-5.7 123.29-5.7Q124.29-5.7 124.82-4.78 125.34-3.85 125.34-2.85L125.34-2.85Q125.34-1.85 124.82-0.93 124.29 0 123.29 0L123.29 0ZM139.94 0.3L139.94 0.3Q136.64 0.3 133.99-0.83 131.34-1.95 129.79-4.48 128.24-7 128.24-11.15L128.24-11.15 128.24-25.1Q128.24-29.25 129.79-31.78 131.34-34.3 133.96-35.43 136.59-36.55 139.94-36.55L139.94-36.55Q143.24-36.55 145.91-35.43 148.59-34.3 150.14-31.78 151.69-29.25 151.69-25.1L151.69-25.1 151.69-11.15Q151.69-7 150.14-4.48 148.59-1.95 145.91-0.83 143.24 0.3 139.94 0.3ZM139.94-5.4L139.94-5.4Q142.39-5.4 143.79-6.8 145.19-8.2 145.19-11.15L145.19-11.15 145.19-25.1Q145.19-28.05 143.79-29.45 142.39-30.85 139.94-30.85L139.94-30.85Q137.49-30.85 136.09-29.45 134.69-28.05 134.69-25.1L134.69-25.1 134.69-11.15Q134.69-8.2 136.09-6.8 137.49-5.4 139.94-5.4ZM160.54 0L160.54 0Q159.34 0 158.31-0.53 157.29-1.05 157.29-2.05L157.29-2.05 157.29-34.5Q157.29-35.55 158.31-36.05 159.34-36.55 160.54-36.55L160.54-36.55Q161.74-36.55 162.51-36.3 163.29-36.05 163.96-35.33 164.64-34.6 165.39-33.1L165.39-33.1 175.04-14.45 175.04-34.55Q175.04-35.6 176.06-36.08 177.09-36.55 178.29-36.55L178.29-36.55Q179.54-36.55 180.54-36.08 181.54-35.6 181.54-34.55L181.54-34.55 181.54-2.05Q181.54-1.05 180.54-0.53 179.54 0 178.29 0L178.29 0Q177.14 0 176.16-0.45 175.19-0.9 174.59-2.05L174.59-2.05 163.79-22.15 163.79-2.05Q163.79-1.05 162.79-0.53 161.79 0 160.54 0ZM199.13 0L199.13 0Q198.23 0 197.28-0.35 196.33-0.7 195.68-1.3 195.03-1.9 195.03-2.7L195.03-2.7Q195.03-2.85 195.08-3.2L195.08-3.2 204.73-34.65Q205.08-35.75 206.31-36.3 207.53-36.85 208.93-36.85L208.93-36.85Q210.38-36.85 211.58-36.3 212.78-35.75 213.13-34.65L213.13-34.65 222.78-3.2Q222.88-2.85 222.88-2.7L222.88-2.7Q222.88-1.95 222.21-1.33 221.53-0.7 220.58-0.35 219.63 0 218.73 0L218.73 0Q217.93 0 217.36-0.28 216.78-0.55 216.58-1.3L216.58-1.3 214.68-7.95 203.18-7.95 201.33-1.3Q201.13-0.55 200.53-0.28 199.93 0 199.13 0ZM208.93-28.4L204.58-13.05 213.28-13.05 208.93-28.4ZM229.53 0L229.53 0Q228.33 0 227.3-0.53 226.28-1.05 226.28-2.05L226.28-2.05 226.28-34.55Q226.28-35.6 227.3-36.08 228.33-36.55 229.53-36.55L229.53-36.55Q230.78-36.55 231.78-36.08 232.78-35.6 232.78-34.55L232.78-34.55 232.78-2.05Q232.78-1.05 231.78-0.53 230.78 0 229.53 0ZM258.88 0.25L258.88 0.25Q258.23 0.25 257.6-0.15 256.98-0.55 256.63-1.3L256.63-1.3 249.53-15.1 245.33-15.1 245.33-2.05Q245.33-1.05 244.33-0.53 243.33 0 242.08 0L242.08 0Q240.88 0 239.85-0.53 238.83-1.05 238.83-2.05L238.83-2.05 238.83-34.55Q238.83-35.35 239.4-35.95 239.98-36.55 240.93-36.55L240.93-36.55 250.83-36.55Q254.13-36.55 256.8-35.6 259.48-34.65 261.08-32.38 262.68-30.1 262.68-26.1L262.68-26.1Q262.68-23.2 261.83-21.18 260.98-19.15 259.5-17.93 258.03-16.7 256.13-16.1L256.13-16.1 262.73-3.95Q262.83-3.75 262.88-3.53 262.93-3.3 262.93-3.15L262.93-3.15Q262.93-2.35 262.33-1.55 261.73-0.75 260.8-0.25 259.88 0.25 258.88 0.25ZM245.33-30.85L245.33-20.2 250.83-20.2Q253.28-20.2 254.73-21.4 256.18-22.6 256.18-25.5L256.18-25.5Q256.18-28.5 254.73-29.68 253.28-30.85 250.83-30.85L250.83-30.85 245.33-30.85ZM285.97 0L270.07 0Q269.02 0 268.12-0.53 267.22-1.05 267.22-2.05L267.22-2.05 267.22-34.55Q267.22-35.6 268.25-36.08 269.27-36.55 270.47-36.55L270.47-36.55Q271.72-36.55 272.72-36.08 273.72-35.6 273.72-34.55L273.72-34.55 273.72-5.7 285.97-5.7Q286.92-5.7 287.4-4.83 287.87-3.95 287.87-2.85L287.87-2.85Q287.87-1.8 287.4-0.9 286.92 0 285.97 0L285.97 0ZM294.62 0L294.62 0Q293.42 0 292.39-0.53 291.37-1.05 291.37-2.05L291.37-2.05 291.37-34.55Q291.37-35.6 292.39-36.08 293.42-36.55 294.62-36.55L294.62-36.55Q295.87-36.55 296.87-36.08 297.87-35.6 297.87-34.55L297.87-34.55 297.87-2.05Q297.87-1.05 296.87-0.53 295.87 0 294.62 0ZM307.17 0L307.17 0Q305.97 0 304.94-0.53 303.92-1.05 303.92-2.05L303.92-2.05 303.92-34.5Q303.92-35.55 304.94-36.05 305.97-36.55 307.17-36.55L307.17-36.55Q308.37-36.55 309.14-36.3 309.92-36.05 310.59-35.33 311.27-34.6 312.02-33.1L312.02-33.1 321.67-14.45 321.67-34.55Q321.67-35.6 322.69-36.08 323.72-36.55 324.92-36.55L324.92-36.55Q326.17-36.55 327.17-36.08 328.17-35.6 328.17-34.55L328.17-34.55 328.17-2.05Q328.17-1.05 327.17-0.53 326.17 0 324.92 0L324.92 0Q323.77 0 322.79-0.45 321.82-0.9 321.22-2.05L321.22-2.05 310.42-22.15 310.42-2.05Q310.42-1.05 309.42-0.53 308.42 0 307.17 0ZM354.87 0L337.07 0Q336.02 0 335.12-0.53 334.22-1.05 334.22-2.05L334.22-2.05 334.22-34.5Q334.22-35.5 335.12-36.02 336.02-36.55 337.07-36.55L337.07-36.55 354.87-36.55Q355.97-36.55 356.44-35.65 356.92-34.75 356.92-33.75L356.92-33.75Q356.92-32.55 356.39-31.7 355.87-30.85 354.87-30.85L354.87-30.85 340.72-30.85 340.72-20.85 348.32-20.85Q349.32-20.85 349.84-20.08 350.37-19.3 350.37-18.25L350.37-18.25Q350.37-17.4 349.89-16.57 349.42-15.75 348.32-15.75L348.32-15.75 340.72-15.75 340.72-5.7 354.87-5.7Q355.87-5.7 356.39-4.85 356.92-4 356.92-2.8L356.92-2.8Q356.92-1.8 356.44-0.9 355.97 0 354.87 0L354.87 0ZM370.46 0.45L370.46 0.45Q367.21 0.45 364.59-0.5 361.96-1.45 360.44-2.88 358.91-4.3 358.91-5.75L358.91-5.75Q358.91-6.45 359.29-7.28 359.66-8.1 360.31-8.68 360.96-9.25 361.76-9.25L361.76-9.25Q362.56-9.25 363.26-8.68 363.96-8.1 364.86-7.33 365.76-6.55 367.06-5.98 368.36-5.4 370.26-5.4L370.26-5.4Q371.76-5.4 373.04-5.88 374.31-6.35 375.09-7.3 375.86-8.25 375.86-9.75L375.86-9.75Q375.86-11.35 375.01-12.45 374.16-13.55 372.71-14.35 371.26-15.15 369.56-15.9 367.86-16.65 366.14-17.5 364.41-18.35 362.99-19.55 361.56-20.75 360.69-22.5 359.81-24.25 359.81-26.8L359.81-26.8Q359.81-29.6 360.89-31.5 361.96-33.4 363.74-34.58 365.51-35.75 367.66-36.27 369.81-36.8 371.96-36.8L371.96-36.8Q373.11-36.8 374.69-36.63 376.26-36.45 377.84-36 379.41-35.55 380.44-34.77 381.46-34 381.46-32.8L381.46-32.8Q381.46-32.2 381.19-31.4 380.91-30.6 380.34-29.98 379.76-29.35 378.86-29.35L378.86-29.35Q378.06-29.35 377.29-29.83 376.51-30.3 375.29-30.78 374.06-31.25 371.96-31.25L371.96-31.25Q370.21-31.25 368.91-30.78 367.61-30.3 366.96-29.48 366.31-28.65 366.31-27.4L366.31-27.4Q366.31-26.1 367.19-25.2 368.06-24.3 369.49-23.6 370.91-22.9 372.61-22.2 374.31-21.5 376.04-20.58 377.76-19.65 379.21-18.35 380.66-17.05 381.51-15.13 382.36-13.2 382.36-10.4L382.36-10.4Q382.36-6.85 380.81-4.42 379.26-2 376.59-0.78 373.91 0.45 370.46 0.45Z" opacity="1" transform="matrix(1,0,0,1,0,0)" fill="#ffffff" class="undefined-text-0" data-fill-palette-color="primary" id="text-0"></path></svg></g></svg></g></svg></g></svg></g><g transform="matrix(1,0,0,1,153.37463721590035,0)"><svg viewBox="0 0 88.77072556819931 88.77072556819931" height="88.77072556819931" width="88.77072556819931"><g><svg></svg></g><g id="icon-0"><svg viewBox="0 0 88.77072556819931 88.77072556819931" height="88.77072556819931" width="88.77072556819931"><g><path d="M0 44.385c0-24.513 19.872-44.385 44.385-44.385 24.513 0 44.385 19.872 44.386 44.385 0 24.513-19.872 44.385-44.386 44.386-24.513 0-44.385-19.872-44.385-44.386zM44.385 85.264c22.577 0 40.879-18.302 40.879-40.879 0-22.577-18.302-40.879-40.879-40.878-22.577 0-40.879 18.302-40.878 40.878 0 22.577 18.302 40.879 40.878 40.879z" data-fill-palette-color="accent" fill="#ffffff" stroke="transparent"></path></g><g transform="matrix(1,0,0,1,23.77826536544527,24.121716989089514)"><svg viewBox="0 0 41.21419483730877 40.52729159002028" height="40.52729159002028" width="41.21419483730877"><g><svg xmlns="http://www.w3.org/2000/svg" xmlns:xlink="http://www.w3.org/1999/xlink" version="1.1" x="0" y="0" viewBox="2 2 60 59" style="enable-background:new 0 0 64 64;" xml:space="preserve" height="40.52729159002028" width="41.21419483730877" class="icon-s-0" data-fill-palette-color="accent" id="s-0"><path d="M62 6.536C62 4.035 59.966 2 57.465 2c-1.211 0-2.351 0.472-3.207 1.329l-5.528 5.527L37.316 5.051c-0.292-0.097-0.614-0.054-0.871 0.117l-3 2C33.175 7.348 33.01 7.648 33 7.972c-0.009 0.325 0.141 0.633 0.4 0.828l9.533 7.151-6.318 6.984-6.474-0.925c-0.317-0.043-0.627 0.06-0.849 0.283l-2 2c-0.24 0.24-0.342 0.586-0.271 0.919 0.072 0.332 0.308 0.605 0.626 0.725l7.528 2.823 1.861 6.516c0.098 0.34 0.368 0.604 0.711 0.693C37.832 35.99 37.916 36 38 36c0.262 0 0.518-0.103 0.707-0.293l2-2C40.895 33.52 41 33.265 41 33v-5.738c0.356-0.444 1.733-1.877 6.891-6.487l7.307 9.821c0.194 0.261 0.54 0.414 0.828 0.403 0.325-0.008 0.626-0.174 0.807-0.445l2-3c0.171-0.257 0.214-0.578 0.116-0.871l-3.79-11.372c2.662-2.37 4.673-4.502 5.664-5.597C61.582 8.878 62 7.796 62 6.667V6.536zM60 6.667c0 0.631-0.234 1.237-0.659 1.706-1.024 1.131-3.165 3.397-5.999 5.875-0.304 0.265-0.418 0.687-0.29 1.069l3.845 11.536-0.941 1.413-7.111-9.56c-0.168-0.225-0.422-0.37-0.701-0.398-0.276-0.029-0.557 0.062-0.767 0.248C39 26.009 39 26.403 39 27v5.586l-0.506 0.505-1.532-5.366c-0.088-0.305-0.313-0.55-0.61-0.662l-6.546-2.455 0.548-0.548 6.505 0.929c0.334 0.047 0.661-0.073 0.883-0.319l7.411-8.191c0.189-0.208 0.281-0.487 0.254-0.767-0.026-0.28-0.17-0.536-0.396-0.704l-9.28-6.961 1.417-0.944 11.536 3.845c0.359 0.121 0.756 0.026 1.023-0.242l5.965-5.964C56.151 4.264 56.788 4 57.465 4 58.862 4 60 5.138 60 6.536V6.667z" fill="#ffffff" data-fill-palette-color="accent"></path><path d="M11 60c0.266 0 0.521-0.106 0.708-0.294C12.047 59.366 20 51.323 20 46c0-5.009-3.364-8-9-8s-9 2.991-9 8c0 5.323 7.953 13.366 8.292 13.706C10.479 59.894 10.734 60 11 60zM11 40c2.614 0 7 0.779 7 6 0 3.374-4.542 8.929-7 11.558C8.542 54.931 4 49.378 4 46 4 40.779 8.386 40 11 40z" fill="#ffffff" data-fill-palette-color="accent"></path><path d="M15 46c0-2.206-1.794-4-4-4s-4 1.794-4 4 1.794 4 4 4S15 48.206 15 46zM9 46c0-1.103 0.897-2 2-2s2 0.897 2 2-0.897 2-2 2S9 47.103 9 46z" fill="#ffffff" data-fill-palette-color="accent"></path><path d="M47.999 48.949c-0.196-3.822-7.709-5.836-15.663-7.97-4.922-1.32-12.358-3.314-12.336-4.966 0.005-0.384 0.666-2.432 13.203-5.034l-0.406-1.958C19.729 31.733 18.024 34.168 18 35.986c-0.041 3.052 5.224 4.62 13.817 6.924 5.935 1.592 14.062 3.771 14.184 6.141 0.062 1.214-2.078 4.618-23.246 9.979l0.49 1.938C45.442 55.347 48.134 51.592 47.999 48.949z" fill="#ffffff" data-fill-palette-color="accent"></path><rect x="19" y="59" width="2" height="2" fill="#ffffff" data-fill-palette-color="accent"></rect><rect x="15" y="59" width="2" height="2" fill="#ffffff" data-fill-palette-color="accent"></rect></svg></g></svg></g></svg></g></svg></g><g></g></svg></g><defs></defs></svg><rect width="395.52" height="146.0150728328066" fill="none" stroke="none" visibility="hidden"></rect></g></svg></g></svg>