<svg xmlns="http://www.w3.org/2000/svg" version="1.1" xmlns:xlink="http://www.w3.org/1999/xlink" xmlns:svgjs="http://svgjs.dev/svgjs" width="1000" height="1000" viewBox="0 0 1000 1000"><g transform="matrix(1,0,0,1,0,0.0013143486243620828)"><svg viewBox="0 0 280 280" data-background-color="#1f2d5a" preserveAspectRatio="xMidYMid meet" height="1000" width="1000" xmlns="http://www.w3.org/2000/svg" xmlns:xlink="http://www.w3.org/1999/xlink"><g id="tight-bounds" transform="matrix(1,0,0,1,0,-0.00006987440275452173)"><svg viewBox="0 0 280 280" height="280" width="280"><g><svg viewBox="0 0 280 280" height="280" width="280"><g><svg viewBox="0 0 280 280" height="280" width="280"><g id="textblocktransform"><svg viewBox="0 0 280 280" height="280" width="280" id="textblock"><g><svg viewBox="0 0 280 280" height="280" width="280"><g transform="matrix(1,0,0,1,77.31551191602726,74.00336708925556)"><svg viewBox="0 0 125.36897616794548 131.99326582148888" height="131.99326582148888" width="125.36897616794548"><g><svg xmlns="http://www.w3.org/2000/svg" xmlns:xlink="http://www.w3.org/1999/xlink" version="1.1" x="0" y="0" viewBox="9.265000343322754 4.425994873046875 81.26699829101562 85.5610122680664" enable-background="new 0 0 100 100" xml:space="preserve" height="131.99326582148888" width="125.36897616794548" class="icon-o-0" data-fill-palette-color="accent" id="o-0"><path d="M56.243 54.975l5.148 0.333 29.141 11.309v-7.158L78.239 49.53c0.959-0.567 1.543-2.003 1.543-3.985 0-2.586-0.989-4.257-2.519-4.257h-2.801c-1.311 0-2.219 1.233-2.454 3.211l-4.615-3.727c0.815-0.654 1.307-2 1.307-3.81 0-2.586-0.989-4.257-2.519-4.257h-2.801c-1.236 0-2.108 1.104-2.402 2.887l-4.737-3.826v-12.34c0-0.15-1.2-15-6.49-15-5.346 0-6.199 14.85-6.199 15v12.34l-4.737 3.826c-0.293-1.783-1.166-2.887-2.402-2.887h-2.801c-1.53 0-2.519 1.671-2.519 4.257 0 1.81 0.492 3.156 1.307 3.81l-4.615 3.727c-0.234-1.978-1.143-3.211-2.454-3.211h-2.801c-1.53 0-2.519 1.671-2.519 4.257 0 1.982 0.584 3.418 1.543 3.985L9.265 59.459v7.158l29.141-11.309 5.149-0.333v6.701c0 3.853 0.458 8.623 1.242 13.257L33.904 82.69v6.883l12.595-2.983c0.332 1.786 1.103 3.397 3.274 3.397 2.195 0 2.958-1.646 3.284-3.455l12.835 3.041V82.69l-10.841-7.721c0.752-4.663 1.191-9.454 1.191-13.293V54.975zM75.093 44.288h1.541c0.076 0.276 0.149 0.705 0.149 1.257s-0.073 0.981-0.149 1.257h-1.541c-0.076-0.276-0.149-0.705-0.149-1.257S75.017 44.564 75.093 44.288zM23.164 44.288h1.541c0.076 0.276 0.149 0.705 0.149 1.257s-0.073 0.981-0.149 1.257h-1.541c-0.076-0.276-0.149-0.705-0.149-1.257S23.087 44.564 23.164 44.288zM53.243 61.676c0 1.836-0.102 3.753-0.262 5.668-0.365-1.653-1.167-3.076-3.208-3.076-1.728 0-2.569 1.021-3.008 2.337-0.131-1.668-0.21-3.33-0.21-4.929V20.058c0.803 0.192 1.724 0.223 2.526 0.223l0.781-0.003 0.599 0.001c0.635 0 1.768-0.003 2.783-0.301V61.676zM50.541 77.127c0 5.446-0.344 9.86-0.768 9.86s-0.768-4.414-0.768-9.86c0-5.445 0.344-9.859 0.768-9.859S50.541 71.682 50.541 77.127zM52.334 17.143c-0.274 0.069-0.814 0.137-1.875 0.137l-0.599-0.001-0.781 0.003c-1.064 0-1.6-0.074-1.868-0.143v-0.083c0.25-0.342 1.004-1.172 2.439-1.172 1.477 0 2.366 0.86 2.683 1.233V17.143zM63.863 36.962c0-0.553 0.073-0.981 0.149-1.257h1.541c0.076 0.276 0.149 0.705 0.149 1.257s-0.073 0.981-0.149 1.257h-1.319l-0.274-0.221C63.906 37.734 63.863 37.385 63.863 36.962zM73.34 49.43c0.032 0.023 0.06 0.054 0.093 0.075l14.1 11.387v1.342l-25.487-9.891-5.803-0.375V35.623L73.34 49.43zM49.715 7.421c0.52 0.173 1.759 2.866 2.621 6.066-0.791-0.358-1.689-0.604-2.684-0.604-0.847 0-1.6 0.156-2.256 0.409C48.171 10.15 49.266 7.604 49.715 7.421zM34.245 38.22c-0.076-0.276-0.149-0.705-0.149-1.257s0.073-0.981 0.149-1.257h1.541c0.076 0.276 0.149 0.705 0.149 1.257 0 0.423-0.042 0.771-0.097 1.036l-0.274 0.221H34.245zM37.751 52.344l-25.487 9.891v-1.342l14.1-11.387c0.033-0.021 0.061-0.052 0.093-0.075l17.097-13.808v16.346L37.751 52.344zM36.904 84.237l8.497-6.052c0.001 0.005 0.002 0.01 0.003 0.015 0.227 1.094 0.449 2.06 0.666 2.921 0.03 0.878 0.068 1.707 0.117 2.46l-9.282 2.198V84.237zM62.893 85.779l-9.529-2.257c0.014-0.217 0.026-0.441 0.039-0.669 0.342-1.221 0.699-2.734 1.069-4.614l8.421 5.998V85.779z" fill="#000000" data-fill-palette-color="accent"></path></svg></g></svg></g><path d="M10.631 184.575c-0.51-1.423-0.393-2.268 0.353-2.536v0l22.912-8.218c0.389-0.139 0.742-0.072 1.06 0.203 0.316 0.269 0.606 0.773 0.872 1.513v0l0.455 1.269c0.265 0.74 0.361 1.314 0.289 1.722-0.071 0.414-0.3 0.691-0.689 0.83v0l-8.838 3.17 3.467 9.666 8.837-3.17c0.389-0.139 0.742-0.072 1.06 0.203 0.32 0.281 0.613 0.792 0.879 1.531v0l0.448 1.251c0.515 1.435 0.384 2.292-0.393 2.571v0l-22.913 8.219c-0.746 0.268-1.376-0.316-1.891-1.752v0l-0.449-1.251c-0.515-1.435-0.399-2.287 0.347-2.554v0l9.346-3.352-3.467-9.665-9.346 3.352c-0.746 0.268-1.374-0.31-1.884-1.733v0zM27.142 219.262c-1.412-2.18-2.171-4.318-2.276-6.416-0.1-2.101 0.445-4.101 1.636-5.999 1.187-1.903 3.007-3.65 5.46-5.24v0c2.442-1.582 4.774-2.526 6.997-2.831 2.219-0.311 4.261 0.013 6.127 0.97 1.871 0.954 3.513 2.52 4.925 4.7v0c1.419 2.191 2.182 4.335 2.287 6.433 0.111 2.094-0.43 4.087-1.624 5.979-1.194 1.892-3.012 3.63-5.455 5.212v0c-2.453 1.589-4.788 2.542-7.002 2.859-2.215 0.316-4.261-0.001-6.138-0.951-1.871-0.954-3.517-2.526-4.937-4.716zM31.342 216.541c1.108 1.71 2.565 2.599 4.37 2.667 1.804 0.077 3.884-0.648 6.243-2.176v0c2.358-1.528 3.863-3.125 4.513-4.792 0.659-1.665 0.435-3.352-0.673-5.062v0c-1.101-1.699-2.552-2.592-4.354-2.678-1.792-0.084-3.862 0.634-6.209 2.154v0c-2.358 1.528-3.869 3.133-4.532 4.817-0.665 1.692-0.451 3.382 0.642 5.07zM39.943 235.628c-1.072-1.085-1.326-1.906-0.762-2.462v0l17.062-16.854c0.374-0.37 0.731-0.549 1.07-0.537 0.339 0.002 0.693 0.19 1.063 0.565v0l5.215 5.28c4.431 4.486 4.958 8.398 1.581 11.734v0c-1.028 1.015-2.195 1.602-3.5 1.758-1.305 0.157-2.618-0.068-3.937-0.674v0l-0.107 0.106c0.19 0.477 0.233 1.132 0.129 1.964-0.099 0.828-0.333 1.644-0.7 2.447v0l-3.59 8.276c-0.162 0.319-0.293 0.528-0.392 0.627v0c-0.355 0.351-1.064-0.011-2.126-1.087v0l-1.102-1.116c-0.889-0.9-1.217-1.606-0.983-2.118v0l3.16-7.361c0.201-0.601 0.325-1.107 0.37-1.516 0.035-0.409-0.056-0.838-0.275-1.287-0.209-0.449-0.594-0.957-1.156-1.526v0l-1.039-1.052-6.623 6.542c-0.564 0.557-1.381 0.293-2.453-0.792v0zM53.513 227.25l2.527 2.559c0.36 0.365 0.804 0.605 1.33 0.721 0.531 0.121 1.071 0.103 1.618-0.053 0.542-0.161 1.027-0.453 1.453-0.874v0c0.63-0.622 0.929-1.32 0.896-2.092-0.038-0.777-0.403-1.516-1.095-2.218v0l-2.345-2.373zM57.585 252.203c-0.608-0.476-0.994-0.913-1.156-1.31-0.164-0.407-0.124-0.765 0.118-1.075v0l15-19.171c0.517-0.661 1.376-0.521 2.577 0.418v0l1.046 0.819c0.614 0.48 0.999 0.917 1.157 1.31 0.157 0.394 0.108 0.753-0.146 1.078v0l-15 19.171c-0.509 0.65-1.358 0.51-2.549-0.421v0zM65.944 257.742c-0.185-0.106-0.276-0.395-0.275-0.87 0.008-0.471 0.077-0.987 0.207-1.55 0.132-0.553 0.282-0.978 0.45-1.272v0c0.036-0.064 0.115-0.161 0.235-0.291v0l19.932-9.211-9.169-5.233c-0.347-0.198-0.524-0.472-0.532-0.821-0.008-0.349 0.154-0.813 0.484-1.392v0l0.574-1.006c0.333-0.584 0.652-0.962 0.957-1.133 0.305-0.171 0.631-0.158 0.978 0.04v0l15.094 8.616c0.162 0.092 0.231 0.381 0.207 0.866-0.015 0.482-0.097 1.003-0.247 1.561-0.148 0.567-0.306 0.999-0.474 1.293v0c-0.079 0.139-0.143 0.217-0.192 0.236v0l-19.877 9.195 10.089 5.759c0.347 0.198 0.524 0.472 0.532 0.821 0.008 0.349-0.152 0.81-0.479 1.383v0l-0.589 1.032c-0.333 0.584-0.652 0.962-0.957 1.133-0.305 0.171-0.631 0.158-0.978-0.041v0zM99.089 273.365c-2.466-0.815-4.397-2.007-5.792-3.576-1.394-1.576-2.221-3.476-2.481-5.702-0.267-2.227 0.059-4.729 0.976-7.504v0c0.913-2.763 2.141-4.959 3.682-6.589 1.535-1.632 3.33-2.658 5.384-3.08 2.056-0.428 4.317-0.235 6.783 0.58v0c2.478 0.819 4.416 2.014 5.812 3.583 1.398 1.563 2.224 3.456 2.478 5.679 0.254 2.223-0.076 4.716-0.989 7.479v0c-0.917 2.776-2.141 4.98-3.67 6.614-1.529 1.634-3.322 2.668-5.381 3.103-2.056 0.428-4.324 0.233-6.802-0.587zM100.66 268.614c1.935 0.639 3.627 0.42 5.077-0.657 1.454-1.069 2.623-2.938 3.505-5.606v0c0.882-2.668 1.054-4.855 0.517-6.562-0.529-1.711-1.76-2.886-3.695-3.525v0c-1.922-0.635-3.612-0.423-5.071 0.638-1.45 1.057-2.614 2.913-3.492 5.568v0c-0.882 2.668-1.054 4.866-0.517 6.594 0.541 1.736 1.767 2.919 3.676 3.55zM119.397 278.081c-1.516-0.163-2.232-0.639-2.147-1.427v0l2.609-24.201c0.044-0.41 0.263-0.698 0.655-0.864 0.393-0.165 0.977-0.206 1.752-0.123v0l1.618 0.175c0.609 0.066 1.105 0.189 1.487 0.371 0.382 0.188 0.679 0.502 0.894 0.94v0l7.445 14.717 0.858 1.639 1.627-15.095c0.044-0.41 0.259-0.699 0.646-0.864 0.393-0.165 0.98-0.206 1.761-0.122v0l1.082 0.117c0.781 0.084 1.34 0.248 1.675 0.492 0.342 0.244 0.491 0.572 0.447 0.982v0l-2.608 24.202c-0.085 0.788-0.879 1.101-2.382 0.939v0l-1.45-0.157c-0.622-0.067-1.118-0.188-1.488-0.361-0.363-0.173-0.652-0.472-0.868-0.897v0l-7.812-15.319-0.676-1.278-1.651 15.313c-0.085 0.788-0.879 1.101-2.381 0.939v0zM156.041 278.83c-1.524 0.289-2.338 0.161-2.441-0.382v0c-0.03-0.157-0.023-0.392 0.019-0.705v0l3.689-25.574c0.096-0.567 0.756-0.966 1.979-1.198v0l1.933-0.366c1.217-0.23 1.974-0.099 2.271 0.394v0l12.779 22.457c0.125 0.268 0.204 0.487 0.237 0.656v0c0.053 0.281-0.058 0.516-0.335 0.704-0.276 0.188-0.738 0.343-1.386 0.466v0l-1.639 0.31c-0.589 0.111-1.071 0.142-1.446 0.091-0.382-0.05-0.642-0.207-0.781-0.473v0l-2.373-4.267-8.804 1.666-0.649 4.84c-0.059 0.547-0.586 0.914-1.581 1.102v0zM160.407 267.36l5.604-1.061-3.376-6.233c-0.189-0.317-0.37-0.682-0.543-1.097-0.173-0.414-0.333-0.811-0.479-1.19v0l-0.148 0.028 0.009 0.476c0.012 0.852-0.026 1.526-0.115 2.024v0zM182.246 273.299c-0.737 0.231-1.316 0.3-1.735 0.207-0.428-0.096-0.7-0.332-0.818-0.707v0l-7.267-23.231c-0.25-0.801 0.352-1.429 1.807-1.884v0l1.268-0.397c0.744-0.233 1.322-0.302 1.735-0.208 0.413 0.094 0.681 0.338 0.805 0.732v0l7.267 23.232c0.247 0.788-0.352 1.408-1.794 1.859v0zM193.708 268.606c-1.376 0.657-2.235 0.628-2.577-0.087v0l-10.335-21.64c-0.227-0.475-0.279-0.87-0.158-1.187 0.113-0.32 0.407-0.593 0.882-0.82v0l6.697-3.198c5.69-2.718 9.559-1.935 11.605 2.35v0c0.623 1.304 0.794 2.598 0.515 3.882-0.279 1.285-0.921 2.451-1.927 3.5v0l0.065 0.135c0.513-0.023 1.145 0.15 1.898 0.521 0.75 0.365 1.444 0.853 2.083 1.463v0l6.644 6.102c0.249 0.258 0.403 0.45 0.464 0.576v0c0.215 0.451-0.359 1.002-1.723 1.653v0l-1.416 0.676c-1.142 0.545-1.916 0.624-2.323 0.235v0l-5.92-5.397c-0.502-0.387-0.94-0.669-1.312-0.845-0.375-0.168-0.811-0.222-1.306-0.163-0.492 0.051-1.099 0.248-1.82 0.593v0l-1.334 0.637 4.012 8.4c0.342 0.715-0.176 1.401-1.552 2.059v0zM190.236 253.04l3.245-1.549c0.463-0.221 0.835-0.561 1.118-1.021 0.288-0.462 0.448-0.978 0.479-1.546 0.025-0.565-0.091-1.119-0.35-1.659v0c-0.382-0.799-0.943-1.31-1.684-1.532-0.747-0.219-1.565-0.116-2.453 0.309v0l-3.011 1.437zM214.86 257.228c-0.431 0.302-0.813 0.423-1.148 0.364-0.343-0.061-0.666-0.306-0.967-0.737v0l-13.735-19.623c-0.237-0.338-0.262-0.699-0.075-1.081 0.187-0.383 0.6-0.798 1.238-1.245v0l1.056-0.739c0.644-0.451 1.175-0.696 1.593-0.737 0.424-0.045 0.754 0.102 0.991 0.44v0l11.748 16.783 6.939-4.857c0.327-0.229 0.651-0.272 0.97-0.13 0.314 0.146 0.66 0.489 1.037 1.029v0l0.682 0.974c0.386 0.551 0.594 0.999 0.623 1.344 0.025 0.349-0.127 0.637-0.454 0.866v0zM230.844 245.222c-0.581 0.509-1.082 0.806-1.503 0.891-0.43 0.085-0.775-0.021-1.034-0.317v0l-16.031-18.317c-0.553-0.631-0.255-1.449 0.892-2.454v0l1-0.875c0.586-0.513 1.087-0.81 1.503-0.891 0.416-0.081 0.76 0.034 1.032 0.345v0l16.031 18.318c0.544 0.621 0.247 1.43-0.89 2.425v0zM239.455 236.22c-0.985 1.164-1.78 1.491-2.385 0.978v0l-18.585-15.72c-0.315-0.267-0.431-0.609-0.348-1.027 0.083-0.418 0.376-0.924 0.879-1.519v0l1.052-1.243c0.396-0.468 0.776-0.809 1.14-1.024 0.37-0.21 0.796-0.281 1.28-0.213v0l16.361 2.078 1.839 0.208-11.592-9.805c-0.315-0.267-0.433-0.606-0.354-1.019 0.083-0.418 0.379-0.927 0.886-1.527v0l0.703-0.831c0.507-0.6 0.956-0.971 1.346-1.112 0.394-0.146 0.749-0.086 1.064 0.18v0l18.585 15.721c0.605 0.512 0.419 1.345-0.557 2.498v0l-0.942 1.114c-0.404 0.478-0.782 0.821-1.133 1.03-0.347 0.204-0.757 0.276-1.229 0.216v0l-17.066-2.111-1.438-0.157 11.76 9.947c0.605 0.512 0.419 1.345-0.557 2.499v0zM256.535 213.513c-0.255 0.46-0.546 0.737-0.872 0.829-0.335 0.096-0.732 0.016-1.193-0.239v0l-20.627-11.451c-0.46-0.255-0.732-0.547-0.816-0.876-0.093-0.326-0.012-0.719 0.243-1.179v0l6.758-12.174c0.194-0.349 0.466-0.53 0.815-0.541 0.349-0.012 0.818 0.146 1.406 0.472v0l1.013 0.562c0.582 0.323 0.961 0.636 1.135 0.939 0.175 0.303 0.165 0.629-0.029 0.978v0l-4.649 8.375 4.829 2.681 4.155-7.484c0.191-0.343 0.461-0.521 0.81-0.533 0.343-0.015 0.809 0.141 1.397 0.467v0l1.031 0.572c0.588 0.326 0.966 0.639 1.135 0.939 0.175 0.303 0.167 0.626-0.024 0.969v0l-4.154 7.484 5.388 2.992 4.659-8.393c0.194-0.349 0.466-0.53 0.815-0.542 0.349-0.012 0.812 0.142 1.388 0.463v0l1.039 0.577c0.588 0.326 0.969 0.641 1.144 0.943 0.175 0.303 0.165 0.629-0.028 0.978v0zM268.527 188.182c-0.597 1.696-1.291 3.128-2.083 4.297-0.796 1.16-1.562 1.992-2.297 2.495-0.741 0.502-1.332 0.675-1.771 0.521v0c-0.352-0.124-0.737-0.404-1.155-0.841-0.422-0.445-0.751-0.914-0.988-1.406-0.242-0.495-0.322-0.861-0.238-1.1v0c0.053-0.151 0.29-0.424 0.712-0.819v0c0.631-0.59 1.178-1.17 1.64-1.742 0.456-0.574 0.833-1.285 1.131-2.133v0c0.331-0.942 0.427-1.805 0.286-2.589-0.141-0.784-0.673-1.338-1.596-1.663v0c-0.54-0.19-1.065-0.184-1.573 0.019-0.507 0.196-0.988 0.51-1.444 0.942-0.454 0.426-1.022 1.028-1.704 1.804v0l-1.248 1.351c-0.805 0.804-1.613 1.455-2.424 1.953-0.808 0.492-1.754 0.791-2.836 0.898-1.084 0.113-2.299-0.067-3.643-0.541v0c-1.639-0.577-2.863-1.463-3.671-2.657-0.804-1.186-1.233-2.516-1.286-3.989-0.062-1.469 0.168-2.945 0.689-4.427v0c0.424-1.206 0.936-2.258 1.534-3.156 0.59-0.894 1.181-1.551 1.773-1.97 0.586-0.422 1.074-0.565 1.464-0.428v0c0.32 0.113 0.694 0.364 1.121 0.755 0.436 0.386 0.788 0.8 1.057 1.24 0.269 0.44 0.355 0.796 0.261 1.066v0c-0.042 0.119-0.187 0.312-0.436 0.577v0c-0.376 0.426-0.715 0.867-1.017 1.326-0.309 0.456-0.591 1.049-0.848 1.777v0c-0.44 1.25-0.544 2.188-0.312 2.812 0.226 0.623 0.605 1.028 1.139 1.217v0c0.622 0.219 1.198 0.238 1.727 0.057 0.538-0.185 1.027-0.482 1.468-0.892 0.447-0.407 1.005-1.002 1.676-1.783v0c1.055-1.154 1.992-2.07 2.809-2.749 0.824-0.677 1.83-1.16 3.019-1.448 1.186-0.282 2.533-0.157 4.041 0.374v0c1.841 0.647 3.215 1.565 4.124 2.753 0.903 1.186 1.404 2.481 1.503 3.885 0.093 1.402-0.109 2.807-0.604 4.214z" fill="#000000" data-fill-palette-color="primary"></path><path d="M29.658 108.818C29.147 110.241 28.519 110.819 27.773 110.551V110.551L4.861 102.333C4.472 102.193 4.243 101.916 4.172 101.502 4.099 101.094 4.195 100.52 4.46 99.78V99.78L4.916 98.511C5.181 97.771 5.472 97.267 5.787 96.998 6.105 96.723 6.458 96.656 6.847 96.795V96.795L15.685 99.965 19.152 90.3 10.314 87.13C9.925 86.99 9.696 86.713 9.625 86.299 9.557 85.878 9.655 85.298 9.92 84.559V84.559L10.369 83.308C10.884 81.873 11.53 81.294 12.307 81.573V81.573L35.219 89.792C35.965 90.059 36.081 90.911 35.566 92.346V92.346L35.118 93.597C34.603 95.032 33.972 95.616 33.226 95.348V95.348L23.881 91.996 20.414 101.661 29.76 105.013C30.506 105.281 30.623 106.126 30.113 107.549V107.549ZM44.551 78.564C43.139 80.744 41.497 82.31 39.626 83.264 37.749 84.214 35.701 84.534 33.482 84.223 31.26 83.918 28.922 82.97 26.469 81.381V81.381C24.027 79.799 22.212 78.056 21.025 76.152 19.835 74.255 19.295 72.259 19.406 70.164 19.512 68.067 20.27 65.928 21.682 63.748V63.748C23.102 61.558 24.747 59.985 26.619 59.032 28.484 58.075 30.525 57.754 32.74 58.07 34.955 58.387 37.284 59.336 39.726 60.918V60.918C42.179 62.508 44.003 64.249 45.197 66.141 46.391 68.033 46.938 70.03 46.838 72.131 46.733 74.229 45.97 76.373 44.551 78.564ZM40.351 75.843C41.459 74.133 41.675 72.44 40.999 70.765 40.333 69.087 38.82 67.484 36.462 65.956V65.956C34.103 64.428 32.031 63.709 30.244 63.797 28.455 63.876 27.007 64.77 25.899 66.48V66.48C24.798 68.179 24.577 69.868 25.234 71.548 25.89 73.218 27.391 74.814 29.738 76.334V76.334C32.097 77.862 34.179 78.585 35.987 78.502 37.803 78.417 39.258 77.531 40.351 75.843ZM54.341 65.117C53.27 66.202 52.452 66.466 51.888 65.909V65.909L34.826 49.056C34.452 48.686 34.268 48.332 34.276 47.993 34.274 47.654 34.457 47.297 34.827 46.923V46.923L40.042 41.643C44.474 37.157 48.379 36.582 51.756 39.918V39.918C52.784 40.934 53.385 42.093 53.558 43.396 53.731 44.699 53.522 46.014 52.932 47.341V47.341L53.039 47.446C53.513 47.25 54.167 47.199 55.001 47.293 55.831 47.382 56.649 47.605 57.456 47.963V47.963L65.777 51.45C66.098 51.609 66.308 51.737 66.408 51.835V51.835C66.763 52.186 66.41 52.899 65.348 53.975V53.975L64.246 55.09C63.356 55.99 62.655 56.327 62.14 56.099V56.099L54.74 53.03C54.136 52.836 53.629 52.719 53.219 52.679 52.81 52.649 52.382 52.745 51.936 52.97 51.49 53.184 50.986 53.576 50.424 54.144V54.144L49.386 55.196 56.009 61.738C56.572 62.295 56.318 63.116 55.247 64.201V64.201ZM45.797 51.651L48.324 49.093C48.684 48.728 48.919 48.282 49.029 47.754 49.143 47.221 49.119 46.682 48.955 46.137 48.787 45.596 48.49 45.115 48.064 44.694V44.694C47.434 44.072 46.732 43.782 45.961 43.824 45.184 43.872 44.449 44.246 43.757 44.947V44.947L41.412 47.32ZM70.128 50.33C69.52 50.806 69.003 51.075 68.578 51.137 68.144 51.197 67.805 51.073 67.563 50.764V50.764L52.563 31.593C52.046 30.932 52.388 30.132 53.589 29.192V29.192L54.635 28.373C55.249 27.893 55.766 27.624 56.185 27.566 56.605 27.508 56.942 27.642 57.197 27.967V27.967L72.197 47.138C72.706 47.789 72.365 48.579 71.174 49.511V49.511ZM75.938 46.237C75.753 46.343 75.457 46.274 75.05 46.031 74.649 45.785 74.239 45.463 73.82 45.066 73.411 44.671 73.122 44.326 72.954 44.031V44.031C72.917 43.967 72.874 43.85 72.822 43.68V43.68L75.029 21.834 65.859 27.068C65.512 27.266 65.187 27.279 64.882 27.108 64.577 26.937 64.26 26.562 63.93 25.984V25.984L63.355 24.977C63.022 24.393 62.859 23.927 62.867 23.577 62.874 23.228 63.052 22.954 63.399 22.756V22.756L78.493 14.141C78.655 14.048 78.939 14.136 79.344 14.403 79.752 14.661 80.158 14.996 80.563 15.409 80.976 15.825 81.267 16.18 81.436 16.475V16.475C81.515 16.614 81.55 16.709 81.541 16.76V16.76L79.349 38.552 89.438 32.793C89.785 32.595 90.111 32.582 90.416 32.753 90.72 32.924 91.036 33.296 91.363 33.868V33.868L91.952 34.901C92.285 35.485 92.448 35.952 92.441 36.301 92.433 36.65 92.256 36.924 91.909 37.122V37.122ZM105.644 32.842C103.178 33.657 100.917 33.85 98.861 33.422 96.803 32.987 95.006 31.954 93.471 30.322 91.929 28.693 90.7 26.49 89.782 23.715V23.715C88.869 20.952 88.546 18.457 88.812 16.23 89.073 14.004 89.902 12.11 91.3 10.547 92.696 8.978 94.627 7.785 97.092 6.97V6.97C99.571 6.151 101.838 5.956 103.894 6.384 105.949 6.806 107.74 7.834 109.269 9.468 110.798 11.102 112.019 13.3 112.932 16.063V16.063C113.85 18.838 114.181 21.338 113.927 23.561 113.673 25.784 112.849 27.683 111.456 29.259 110.06 30.829 108.123 32.023 105.644 32.842ZM104.074 28.091C106.008 27.451 107.237 26.267 107.759 24.537 108.29 22.812 108.114 20.615 107.232 17.947V17.947C106.351 15.279 105.185 13.42 103.737 12.369 102.293 11.311 100.604 11.101 98.669 11.741V11.741C96.747 12.376 95.517 13.554 94.977 15.275 94.442 16.988 94.614 19.172 95.492 21.828V21.828C96.373 24.496 97.545 26.363 99.006 27.43 100.475 28.502 102.164 28.722 104.074 28.091ZM121.627 28.535C120.11 28.698 119.31 28.386 119.225 27.598V27.598L116.617 3.396C116.573 2.986 116.725 2.658 117.073 2.413 117.422 2.167 117.984 2.003 118.758 1.92V1.92L120.377 1.745C120.986 1.68 121.497 1.695 121.909 1.791 122.322 1.894 122.68 2.137 122.982 2.519V2.519L133.392 15.312 134.58 16.731 132.953 1.636C132.909 1.225 133.058 0.898 133.4 0.653 133.748 0.408 134.313 0.243 135.095 0.159V0.159L136.177 0.042C136.958-0.042 137.539-0.001 137.918 0.166 138.305 0.332 138.52 0.62 138.564 1.031V1.031L141.172 25.233C141.257 26.02 140.548 26.495 139.045 26.657V26.657L137.596 26.814C136.973 26.881 136.463 26.869 136.065 26.778 135.673 26.686 135.327 26.455 135.026 26.086V26.086L124.128 12.784 123.196 11.679 124.846 26.992C124.931 27.78 124.222 28.255 122.719 28.417V28.417ZM152.367 27.551C150.843 27.262 150.132 26.847 150.235 26.303V26.303C150.265 26.146 150.356 25.93 150.51 25.654V25.654L163.29 3.197C163.587 2.704 164.347 2.574 165.57 2.805V2.805L167.503 3.171C168.72 3.402 169.377 3.8 169.473 4.368V4.368L173.162 29.941C173.18 30.236 173.174 30.469 173.141 30.639V30.639C173.088 30.92 172.899 31.098 172.573 31.172 172.247 31.246 171.76 31.221 171.113 31.099V31.099L169.474 30.789C168.885 30.677 168.425 30.529 168.094 30.344 167.756 30.159 167.572 29.917 167.54 29.62V29.62L166.89 24.78 158.087 23.113 155.714 27.381C155.459 27.868 154.834 28.018 153.84 27.83V27.83ZM160.623 18.47L166.227 19.53 165.363 12.495C165.303 12.131 165.268 11.725 165.258 11.275 165.248 10.826 165.244 10.399 165.247 9.992V9.992L165.099 9.965 164.934 10.411C164.634 11.208 164.351 11.822 164.087 12.253V12.253ZM176.276 32.61C175.538 32.38 175.024 32.107 174.731 31.792 174.435 31.469 174.345 31.12 174.462 30.745V30.745L181.729 7.513C181.98 6.713 182.833 6.54 184.288 6.995V6.995L185.556 7.392C186.3 7.624 186.814 7.897 187.1 8.21 187.386 8.522 187.468 8.876 187.344 9.27V9.27L180.077 32.502C179.831 33.29 178.986 33.458 177.544 33.007V33.007ZM185.1 36.159C183.724 35.502 183.207 34.816 183.549 34.101V34.101L193.884 12.46C194.111 11.986 194.386 11.696 194.709 11.592 195.028 11.479 195.425 11.536 195.9 11.763V11.763L202.597 14.961C208.287 17.679 210.109 21.18 208.063 25.464V25.464C207.44 26.768 206.542 27.715 205.367 28.305 204.192 28.895 202.881 29.129 201.435 29.006V29.006L201.37 29.141C201.71 29.526 201.973 30.127 202.158 30.946 202.345 31.758 202.402 32.605 202.329 33.485V33.485L201.759 42.488C201.714 42.844 201.662 43.084 201.602 43.211V43.211C201.387 43.661 200.597 43.561 199.233 42.909V42.909L197.818 42.234C196.676 41.688 196.129 41.135 196.175 40.574V40.574L196.652 32.578C196.637 31.943 196.582 31.426 196.485 31.026 196.38 30.629 196.148 30.256 195.79 29.908 195.441 29.557 194.906 29.209 194.185 28.865V28.865L192.851 28.228 188.839 36.628C188.498 37.343 187.639 37.372 186.263 36.715V36.715ZM195.025 23.676L198.27 25.226C198.733 25.447 199.232 25.523 199.766 25.453 200.307 25.387 200.809 25.187 201.27 24.854 201.726 24.518 202.083 24.08 202.341 23.539V23.539C202.723 22.74 202.767 21.983 202.474 21.267 202.175 20.549 201.581 19.977 200.692 19.553V19.553L197.681 18.115ZM203.452 45.765C203.021 45.464 202.776 45.146 202.717 44.812 202.656 44.469 202.777 44.082 203.079 43.651V43.651L216.814 24.028C217.051 23.69 217.381 23.543 217.805 23.588 218.229 23.633 218.76 23.879 219.398 24.325V24.325L220.454 25.064C221.098 25.515 221.51 25.93 221.692 26.309 221.879 26.692 221.854 27.052 221.618 27.391V27.391L209.869 44.174 216.809 49.031C217.136 49.26 217.287 49.549 217.263 49.898 217.233 50.242 217.029 50.685 216.651 51.225V51.225L215.969 52.199C215.583 52.75 215.234 53.098 214.92 53.244 214.601 53.387 214.278 53.343 213.95 53.114V53.114ZM217.587 56.601C217.006 56.093 216.645 55.635 216.505 55.229 216.364 54.814 216.423 54.459 216.682 54.163V54.163L232.713 35.845C233.265 35.214 234.115 35.4 235.263 36.405V36.405L236.262 37.279C236.849 37.793 237.21 38.25 237.345 38.651 237.48 39.053 237.412 39.409 237.14 39.72V39.72L221.109 58.037C220.565 58.659 219.724 58.472 218.587 57.476V57.476ZM224.151 63.379C223.166 62.215 222.976 61.377 223.581 60.865V60.865L242.166 45.145C242.482 44.879 242.838 44.821 243.237 44.972 243.635 45.124 244.086 45.497 244.589 46.092V46.092L245.641 47.335C246.036 47.803 246.31 48.234 246.461 48.629 246.607 49.029 246.606 49.461 246.459 49.926V49.926L241.696 65.716 241.186 67.495 252.777 57.69C253.093 57.424 253.447 57.364 253.842 57.51 254.24 57.661 254.693 58.037 255.2 58.637V58.637L255.903 59.468C256.411 60.068 256.702 60.572 256.777 60.98 256.855 61.393 256.737 61.733 256.422 61.999V61.999L237.837 77.719C237.232 78.231 236.441 77.91 235.465 76.756V76.756L234.523 75.642C234.119 75.164 233.843 74.735 233.695 74.354 233.552 73.978 233.549 73.562 233.686 73.106V73.106L238.599 56.627 238.992 55.235 227.232 65.182C226.627 65.693 225.837 65.372 224.86 64.218V64.218ZM239.104 82.797C238.849 82.338 238.768 81.945 238.861 81.619 238.957 81.284 239.235 80.988 239.695 80.733V80.733L260.322 69.282C260.782 69.027 261.174 68.95 261.497 69.052 261.823 69.146 262.113 69.422 262.369 69.882V69.882L269.127 82.056C269.321 82.405 269.331 82.731 269.156 83.034 268.981 83.337 268.6 83.651 268.012 83.977V83.977L266.999 84.54C266.417 84.863 265.951 85.019 265.602 85.007 265.252 84.995 264.981 84.815 264.787 84.465V84.465L260.137 76.09 255.308 78.771 259.463 86.256C259.654 86.599 259.662 86.922 259.487 87.225 259.318 87.524 258.939 87.837 258.351 88.164V88.164L257.321 88.736C256.733 89.062 256.267 89.218 255.924 89.203 255.575 89.191 255.305 89.014 255.114 88.67V88.67L250.959 81.186 245.571 84.177 250.23 92.57C250.424 92.919 250.433 93.245 250.259 93.547 250.084 93.85 249.708 94.161 249.132 94.481V94.481L248.093 95.058C247.505 95.385 247.036 95.542 246.687 95.53 246.338 95.519 246.066 95.338 245.872 94.989V94.989ZM249.112 105.267C248.515 103.571 248.16 102.02 248.046 100.613 247.941 99.21 248.017 98.082 248.275 97.229 248.538 96.374 248.89 95.869 249.33 95.714V95.714C249.682 95.59 250.157 95.568 250.757 95.646 251.365 95.729 251.915 95.888 252.407 96.124 252.906 96.358 253.198 96.595 253.282 96.833V96.833C253.335 96.984 253.321 97.345 253.239 97.918V97.918C253.117 98.773 253.054 99.568 253.051 100.303 253.055 101.035 253.206 101.826 253.504 102.674V102.674C253.836 103.616 254.302 104.349 254.902 104.872 255.503 105.394 256.265 105.494 257.188 105.169V105.169C257.728 104.979 258.133 104.645 258.404 104.169 258.676 103.699 258.854 103.153 258.939 102.53 259.026 101.914 259.092 101.089 259.138 100.057V100.057L259.266 98.222C259.39 97.091 259.612 96.078 259.932 95.182 260.255 94.292 260.804 93.467 261.582 92.706 262.357 91.939 263.416 91.32 264.76 90.847V90.847C266.4 90.27 267.909 90.194 269.287 90.62 270.656 91.042 271.823 91.81 272.787 92.925 273.755 94.032 274.5 95.326 275.022 96.809V96.809C275.446 98.015 275.706 99.155 275.802 100.23 275.902 101.296 275.852 102.178 275.653 102.876 275.46 103.572 275.169 103.989 274.779 104.126V104.126C274.459 104.239 274.01 104.277 273.432 104.24 272.851 104.212 272.317 104.11 271.832 103.935 271.347 103.759 271.057 103.537 270.962 103.267V103.267C270.92 103.147 270.913 102.906 270.94 102.544V102.544C270.967 101.977 270.954 101.42 270.903 100.873 270.858 100.324 270.708 99.685 270.451 98.957V98.957C270.012 97.707 269.506 96.91 268.933 96.568 268.368 96.224 267.818 96.145 267.284 96.333V96.333C266.662 96.552 266.201 96.898 265.901 97.37 265.598 97.851 265.402 98.389 265.315 98.985 265.222 99.582 265.158 100.395 265.125 101.423V101.423C265.024 102.984 264.868 104.285 264.656 105.326 264.437 106.37 263.954 107.377 263.208 108.345 262.459 109.307 261.331 110.054 259.824 110.584V110.584C257.983 111.231 256.337 111.377 254.884 111.019 253.437 110.66 252.236 109.964 251.28 108.931 250.33 107.896 249.607 106.675 249.112 105.267Z" fill="#000000" data-fill-palette-color="primary"></path><path d="M3.856 143.297c0-5.681 4.606-10.287 10.287-10.287 5.681 0 10.287 4.606 10.287 10.287 0 5.681-4.606 10.287-10.287 10.287-5.681 0-10.287-4.606-10.287-10.287zM255.57 143.297c0-5.681 4.606-10.287 10.287-10.287 5.681 0 10.287 4.606 10.287 10.287 0 5.681-4.606 10.287-10.287 10.287-5.681 0-10.287-4.606-10.287-10.287z" fill="#000000" data-fill-palette-color="primary"></path></svg></g></svg></g></svg></g></svg></g><defs></defs></svg><rect width="280" height="280" fill="none" stroke="none" visibility="hidden"></rect></g></svg></g></svg>